<svg xmlns="http://www.w3.org/2000/svg" width="1190.25pt" height="842.25pt" viewBox="0 0 1190.25 842.25"><rect x="0" y="0" width="1190.25" height="842.25" fill="#D9D9D9"/><rect x="395" y="45" width="423" height="39" rx="6" fill="#FFFFFF"/><rect x="408" y="53" width="34" height="23" rx="11.5" fill="#596366"/><text x="425" y="69" text-anchor="middle" font-family="Montserrat, Arial, Helvetica, sans-serif" font-weight="700" font-size="10" fill="#FFFFFF">LAB</text><text x="620" y="71" text-anchor="middle" font-family="Roboto, Arial, Helvetica, sans-serif" font-weight="700" font-size="20" fill="#000000">5W2H — PLANO DE AÇÃO</text><text x="19" y="30" font-family="Montserrat, Arial, Helvetica, sans-serif" font-weight="700" font-size="9" fill="#586266" letter-spacing="1">GESTÃO ÁGIL 2.0 · MELHORIA CONTÍNUA · CANVAS DO LABORATÓRIO</text><text x="1171.25" y="832.25" text-anchor="end" font-family="Roboto, Arial, Helvetica, sans-serif" font-size="8" fill="#586266">acréscimo do laboratório · MindMaster · Gestão Ágil 2.0 · sem template oficial no curso — versão de 04/09/2026</text><rect x="19" y="100" width="314.64953271028037" height="60" rx="6" fill="#FFFFFF"/><text x="31" y="117" text-anchor="start" font-family="Montserrat, Arial, Helvetica, sans-serif" font-weight="700" font-size="9" fill="#586266">Ligado a</text><text x="31" y="131" text-anchor="start" font-family="Roboto, Arial, Helvetica, sans-serif" font-weight="400" font-size="7" fill="#7A8286">A3, PDCA ou retro que pede este plano</text><rect x="343.64953271028037" y="100" width="471.9742990654206" height="60" rx="6" fill="#FFFFFF"/><text x="355.64953271028037" y="117" text-anchor="start" font-family="Montserrat, Arial, Helvetica, sans-serif" font-weight="700" font-size="9" fill="#586266">Causa raiz que este plano ataca</text><text x="355.64953271028037" y="131" text-anchor="start" font-family="Roboto, Arial, Helvetica, sans-serif" font-weight="400" font-size="7" fill="#7A8286">uma frase, processo ou regra — nunca pessoa</text><rect x="825.623831775701" y="100" width="209.76635514018687" height="60" rx="6" fill="#FFFFFF"/><text x="837.623831775701" y="117" text-anchor="start" font-family="Montserrat, Arial, Helvetica, sans-serif" font-weight="700" font-size="9" fill="#586266">Responsável pelo plano</text><text x="837.623831775701" y="131" text-anchor="start" font-family="Roboto, Arial, Helvetica, sans-serif" font-weight="400" font-size="7" fill="#7A8286">um nome</text><rect x="1045.3901869158879" y="100" width="125.85981308411215" height="60" rx="6" fill="#FFFFFF"/><text x="1057.3901869158879" y="117" text-anchor="start" font-family="Montserrat, Arial, Helvetica, sans-serif" font-weight="700" font-size="9" fill="#586266">Data</text><rect x="19" y="172" width="1152.25" height="586" rx="6" fill="#FFFFFF"/><text x="31" y="194" text-anchor="start" font-family="Montserrat, Arial, Helvetica, sans-serif" font-weight="700" font-size="14" fill="#586266">PLANO DE AÇÃO</text><text x="31" y="208" text-anchor="start" font-family="Roboto, Arial, Helvetica, sans-serif" font-weight="400" font-size="7" fill="#7A8286">Uma linha por ação. Dono único e data em toda linha. Sem data não é plano.</text><rect x="31" y="208" width="1128.25" height="22" rx="4" fill="#596366"/><text x="48.395925110132154" y="223" text-anchor="middle" font-family="Montserrat, Arial, Helvetica, sans-serif" font-weight="700" font-size="9" fill="#FFFFFF">#</text><text x="175.13766519823787" y="223" text-anchor="middle" font-family="Montserrat, Arial, Helvetica, sans-serif" font-weight="700" font-size="9" fill="#FFFFFF">O QUÊ (what)</text><text x="364.00770925110135" y="223" text-anchor="middle" font-family="Montserrat, Arial, Helvetica, sans-serif" font-weight="700" font-size="9" fill="#FFFFFF">POR QUÊ (why)</text><text x="498.20484581497794" y="223" text-anchor="middle" font-family="Montserrat, Arial, Helvetica, sans-serif" font-weight="700" font-size="9" fill="#FFFFFF">QUEM (who)</text><text x="597.6101321585902" y="223" text-anchor="middle" font-family="Montserrat, Arial, Helvetica, sans-serif" font-weight="700" font-size="9" fill="#FFFFFF">QUANDO (when)</text><text x="701.9856828193832" y="223" text-anchor="middle" font-family="Montserrat, Arial, Helvetica, sans-serif" font-weight="700" font-size="9" fill="#FFFFFF">ONDE (where)</text><text x="861.034140969163" y="223" text-anchor="middle" font-family="Montserrat, Arial, Helvetica, sans-serif" font-weight="700" font-size="9" fill="#FFFFFF">COMO (how)</text><text x="1010.1420704845814" y="223" text-anchor="middle" font-family="Montserrat, Arial, Helvetica, sans-serif" font-weight="700" font-size="9" fill="#FFFFFF">QUANTO (how much)</text><text x="1109.5473568281936" y="223" text-anchor="middle" font-family="Montserrat, Arial, Helvetica, sans-serif" font-weight="700" font-size="9" fill="#FFFFFF">STATUS</text><line x1="31" y1="316.3333333333333" x2="1159.25" y2="316.3333333333333" stroke="#D9D9D9" stroke-width="1"/><text x="36" y="244.0" text-anchor="start" font-family="Roboto, Arial, Helvetica, sans-serif" font-weight="400" font-size="8" fill="#7A8286">1</text><line x1="65.79185022026431" y1="230.0" x2="65.79185022026431" y2="316.3333333333333" stroke="#D9D9D9" stroke-width="1"/><line x1="284.48348017621146" y1="230.0" x2="284.48348017621146" y2="316.3333333333333" stroke="#D9D9D9" stroke-width="1"/><line x1="443.5319383259912" y1="230.0" x2="443.5319383259912" y2="316.3333333333333" stroke="#D9D9D9" stroke-width="1"/><line x1="552.8777533039647" y1="230.0" x2="552.8777533039647" y2="316.3333333333333" stroke="#D9D9D9" stroke-width="1"/><line x1="642.3425110132158" y1="230.0" x2="642.3425110132158" y2="316.3333333333333" stroke="#D9D9D9" stroke-width="1"/><line x1="761.6288546255506" y1="230.0" x2="761.6288546255506" y2="316.3333333333333" stroke="#D9D9D9" stroke-width="1"/><line x1="960.4394273127753" y1="230.0" x2="960.4394273127753" y2="316.3333333333333" stroke="#D9D9D9" stroke-width="1"/><line x1="1059.8447136563875" y1="230.0" x2="1059.8447136563875" y2="316.3333333333333" stroke="#D9D9D9" stroke-width="1"/><line x1="31" y1="402.66666666666663" x2="1159.25" y2="402.66666666666663" stroke="#D9D9D9" stroke-width="1"/><text x="36" y="330.3333333333333" text-anchor="start" font-family="Roboto, Arial, Helvetica, sans-serif" font-weight="400" font-size="8" fill="#7A8286">2</text><line x1="65.79185022026431" y1="316.3333333333333" x2="65.79185022026431" y2="402.66666666666663" stroke="#D9D9D9" stroke-width="1"/><line x1="284.48348017621146" y1="316.3333333333333" x2="284.48348017621146" y2="402.66666666666663" stroke="#D9D9D9" stroke-width="1"/><line x1="443.5319383259912" y1="316.3333333333333" x2="443.5319383259912" y2="402.66666666666663" stroke="#D9D9D9" stroke-width="1"/><line x1="552.8777533039647" y1="316.3333333333333" x2="552.8777533039647" y2="402.66666666666663" stroke="#D9D9D9" stroke-width="1"/><line x1="642.3425110132158" y1="316.3333333333333" x2="642.3425110132158" y2="402.66666666666663" stroke="#D9D9D9" stroke-width="1"/><line x1="761.6288546255506" y1="316.3333333333333" x2="761.6288546255506" y2="402.66666666666663" stroke="#D9D9D9" stroke-width="1"/><line x1="960.4394273127753" y1="316.3333333333333" x2="960.4394273127753" y2="402.66666666666663" stroke="#D9D9D9" stroke-width="1"/><line x1="1059.8447136563875" y1="316.3333333333333" x2="1059.8447136563875" y2="402.66666666666663" stroke="#D9D9D9" stroke-width="1"/><line x1="31" y1="488.99999999999994" x2="1159.25" y2="488.99999999999994" stroke="#D9D9D9" stroke-width="1"/><text x="36" y="416.66666666666663" text-anchor="start" font-family="Roboto, Arial, Helvetica, sans-serif" font-weight="400" font-size="8" fill="#7A8286">3</text><line x1="65.79185022026431" y1="402.66666666666663" x2="65.79185022026431" y2="488.99999999999994" stroke="#D9D9D9" stroke-width="1"/><line x1="284.48348017621146" y1="402.66666666666663" x2="284.48348017621146" y2="488.99999999999994" stroke="#D9D9D9" stroke-width="1"/><line x1="443.5319383259912" y1="402.66666666666663" x2="443.5319383259912" y2="488.99999999999994" stroke="#D9D9D9" stroke-width="1"/><line x1="552.8777533039647" y1="402.66666666666663" x2="552.8777533039647" y2="488.99999999999994" stroke="#D9D9D9" stroke-width="1"/><line x1="642.3425110132158" y1="402.66666666666663" x2="642.3425110132158" y2="488.99999999999994" stroke="#D9D9D9" stroke-width="1"/><line x1="761.6288546255506" y1="402.66666666666663" x2="761.6288546255506" y2="488.99999999999994" stroke="#D9D9D9" stroke-width="1"/><line x1="960.4394273127753" y1="402.66666666666663" x2="960.4394273127753" y2="488.99999999999994" stroke="#D9D9D9" stroke-width="1"/><line x1="1059.8447136563875" y1="402.66666666666663" x2="1059.8447136563875" y2="488.99999999999994" stroke="#D9D9D9" stroke-width="1"/><line x1="31" y1="575.3333333333334" x2="1159.25" y2="575.3333333333334" stroke="#D9D9D9" stroke-width="1"/><text x="36" y="503.0" text-anchor="start" font-family="Roboto, Arial, Helvetica, sans-serif" font-weight="400" font-size="8" fill="#7A8286">4</text><line x1="65.79185022026431" y1="489.0" x2="65.79185022026431" y2="575.3333333333334" stroke="#D9D9D9" stroke-width="1"/><line x1="284.48348017621146" y1="489.0" x2="284.48348017621146" y2="575.3333333333334" stroke="#D9D9D9" stroke-width="1"/><line x1="443.5319383259912" y1="489.0" x2="443.5319383259912" y2="575.3333333333334" stroke="#D9D9D9" stroke-width="1"/><line x1="552.8777533039647" y1="489.0" x2="552.8777533039647" y2="575.3333333333334" stroke="#D9D9D9" stroke-width="1"/><line x1="642.3425110132158" y1="489.0" x2="642.3425110132158" y2="575.3333333333334" stroke="#D9D9D9" stroke-width="1"/><line x1="761.6288546255506" y1="489.0" x2="761.6288546255506" y2="575.3333333333334" stroke="#D9D9D9" stroke-width="1"/><line x1="960.4394273127753" y1="489.0" x2="960.4394273127753" y2="575.3333333333334" stroke="#D9D9D9" stroke-width="1"/><line x1="1059.8447136563875" y1="489.0" x2="1059.8447136563875" y2="575.3333333333334" stroke="#D9D9D9" stroke-width="1"/><line x1="31" y1="661.6666666666666" x2="1159.25" y2="661.6666666666666" stroke="#D9D9D9" stroke-width="1"/><text x="36" y="589.3333333333333" text-anchor="start" font-family="Roboto, Arial, Helvetica, sans-serif" font-weight="400" font-size="8" fill="#7A8286">5</text><line x1="65.79185022026431" y1="575.3333333333333" x2="65.79185022026431" y2="661.6666666666666" stroke="#D9D9D9" stroke-width="1"/><line x1="284.48348017621146" y1="575.3333333333333" x2="284.48348017621146" y2="661.6666666666666" stroke="#D9D9D9" stroke-width="1"/><line x1="443.5319383259912" y1="575.3333333333333" x2="443.5319383259912" y2="661.6666666666666" stroke="#D9D9D9" stroke-width="1"/><line x1="552.8777533039647" y1="575.3333333333333" x2="552.8777533039647" y2="661.6666666666666" stroke="#D9D9D9" stroke-width="1"/><line x1="642.3425110132158" y1="575.3333333333333" x2="642.3425110132158" y2="661.6666666666666" stroke="#D9D9D9" stroke-width="1"/><line x1="761.6288546255506" y1="575.3333333333333" x2="761.6288546255506" y2="661.6666666666666" stroke="#D9D9D9" stroke-width="1"/><line x1="960.4394273127753" y1="575.3333333333333" x2="960.4394273127753" y2="661.6666666666666" stroke="#D9D9D9" stroke-width="1"/><line x1="1059.8447136563875" y1="575.3333333333333" x2="1059.8447136563875" y2="661.6666666666666" stroke="#D9D9D9" stroke-width="1"/><line x1="31" y1="748.0" x2="1159.25" y2="748.0" stroke="#D9D9D9" stroke-width="1"/><text x="36" y="675.6666666666666" text-anchor="start" font-family="Roboto, Arial, Helvetica, sans-serif" font-weight="400" font-size="8" fill="#7A8286">6</text><line x1="65.79185022026431" y1="661.6666666666666" x2="65.79185022026431" y2="748.0" stroke="#D9D9D9" stroke-width="1"/><line x1="284.48348017621146" y1="661.6666666666666" x2="284.48348017621146" y2="748.0" stroke="#D9D9D9" stroke-width="1"/><line x1="443.5319383259912" y1="661.6666666666666" x2="443.5319383259912" y2="748.0" stroke="#D9D9D9" stroke-width="1"/><line x1="552.8777533039647" y1="661.6666666666666" x2="552.8777533039647" y2="748.0" stroke="#D9D9D9" stroke-width="1"/><line x1="642.3425110132158" y1="661.6666666666666" x2="642.3425110132158" y2="748.0" stroke="#D9D9D9" stroke-width="1"/><line x1="761.6288546255506" y1="661.6666666666666" x2="761.6288546255506" y2="748.0" stroke="#D9D9D9" stroke-width="1"/><line x1="960.4394273127753" y1="661.6666666666666" x2="960.4394273127753" y2="748.0" stroke="#D9D9D9" stroke-width="1"/><line x1="1059.8447136563875" y1="661.6666666666666" x2="1059.8447136563875" y2="748.0" stroke="#D9D9D9" stroke-width="1"/><rect x="19" y="766" width="1152.25" height="60" rx="6" fill="#FFFFFF"/><text x="31" y="784" text-anchor="start" font-family="Montserrat, Arial, Helvetica, sans-serif" font-weight="700" font-size="10" fill="#586266">ACOMPANHAMENTO</text><text x="31" y="798" text-anchor="start" font-family="Roboto, Arial, Helvetica, sans-serif" font-weight="400" font-size="7" fill="#7A8286">data · linha · o que mudou · prova</text></svg>