<svg xmlns="http://www.w3.org/2000/svg" width="1190.25pt" height="842.25pt" viewBox="0 0 1190.25 842.25"><rect x="0" y="0" width="1190.25" height="842.25" fill="#D9D9D9"/><rect x="395" y="45" width="423" height="39" rx="6" fill="#FFFFFF"/><rect x="408" y="53" width="34" height="23" rx="11.5" fill="#596366"/><text x="425" y="69" text-anchor="middle" font-family="Montserrat, Arial, Helvetica, sans-serif" font-weight="700" font-size="10" fill="#FFFFFF">LAB</text><text x="620" y="71" text-anchor="middle" font-family="Roboto, Arial, Helvetica, sans-serif" font-weight="700" font-size="20" fill="#000000">ISHIKAWA — ESPINHA DE PEIXE</text><text x="19" y="30" font-family="Montserrat, Arial, Helvetica, sans-serif" font-weight="700" font-size="9" fill="#586266" letter-spacing="1">GESTÃO ÁGIL 2.0 · ENTENDER O CONTEXTO · CANVAS DO LABORATÓRIO</text><text x="1171.25" y="832.25" text-anchor="end" font-family="Roboto, Arial, Helvetica, sans-serif" font-size="8" fill="#586266">acréscimo do laboratório · MindMaster · Gestão Ágil 2.0 · sem template oficial no curso — versão de 04/09/2026</text><rect x="19" y="100" width="647.0" height="60" rx="6" fill="#FFFFFF"/><text x="31" y="117" text-anchor="start" font-family="Montserrat, Arial, Helvetica, sans-serif" font-weight="700" font-size="9" fill="#586266">Caso / desafio</text><rect x="676.0" y="100" width="323.5" height="60" rx="6" fill="#FFFFFF"/><text x="688.0" y="117" text-anchor="start" font-family="Montserrat, Arial, Helvetica, sans-serif" font-weight="700" font-size="9" fill="#586266">Responsável</text><rect x="1009.5" y="100" width="161.75" height="60" rx="6" fill="#FFFFFF"/><text x="1021.5" y="117" text-anchor="start" font-family="Montserrat, Arial, Helvetica, sans-serif" font-weight="700" font-size="9" fill="#586266">Data</text><line x1="60" y1="430" x2="925" y2="430" stroke="#596366" stroke-width="4"/><polygon points="60,430 90,418 90,442" fill="#596366"/><rect x="932" y="355" width="239.25" height="150" rx="6" fill="#FFFFFF"/><text x="944" y="374" text-anchor="start" font-family="Montserrat, Arial, Helvetica, sans-serif" font-weight="700" font-size="11" fill="#586266">PROBLEMA (efeito)</text><text x="944" y="388" text-anchor="start" font-family="Roboto, Arial, Helvetica, sans-serif" font-weight="400" font-size="7" fill="#7A8286">o problema observado, com número</text><line x1="177.5" y1="345" x2="237.5" y2="430" stroke="#596366" stroke-width="2.5"/><rect x="40" y="172" width="275" height="173" rx="6" fill="#FFFFFF"/><text x="52" y="192" text-anchor="start" font-family="Montserrat, Arial, Helvetica, sans-serif" font-weight="700" font-size="12" fill="#586266">MÉTODO</text><text x="52" y="206" text-anchor="start" font-family="Roboto, Arial, Helvetica, sans-serif" font-weight="400" font-size="7" fill="#7A8286">como se faz: processo, regra, padrão</text><line x1="482.5" y1="345" x2="542.5" y2="430" stroke="#596366" stroke-width="2.5"/><rect x="345" y="172" width="275" height="173" rx="6" fill="#FFFFFF"/><text x="357" y="192" text-anchor="start" font-family="Montserrat, Arial, Helvetica, sans-serif" font-weight="700" font-size="12" fill="#586266">MÁQUINA</text><text x="357" y="206" text-anchor="start" font-family="Roboto, Arial, Helvetica, sans-serif" font-weight="400" font-size="7" fill="#7A8286">sistema, timer, ferramenta, infra</text><line x1="787.5" y1="345" x2="847.5" y2="430" stroke="#596366" stroke-width="2.5"/><rect x="650" y="172" width="275" height="173" rx="6" fill="#FFFFFF"/><text x="662" y="192" text-anchor="start" font-family="Montserrat, Arial, Helvetica, sans-serif" font-weight="700" font-size="12" fill="#586266">MATERIAL</text><text x="662" y="206" text-anchor="start" font-family="Roboto, Arial, Helvetica, sans-serif" font-weight="400" font-size="7" fill="#7A8286">insumo: dado, arquivo, pasta, credencial</text><line x1="177.5" y1="520" x2="237.5" y2="430" stroke="#596366" stroke-width="2.5"/><rect x="40" y="520" width="275" height="180" rx="6" fill="#FFFFFF"/><text x="52" y="540" text-anchor="start" font-family="Montserrat, Arial, Helvetica, sans-serif" font-weight="700" font-size="12" fill="#586266">MÃO DE OBRA</text><text x="52" y="554" text-anchor="start" font-family="Roboto, Arial, Helvetica, sans-serif" font-weight="400" font-size="7" fill="#7A8286">gente e agente: capacidade, carga, papel</text><line x1="482.5" y1="520" x2="542.5" y2="430" stroke="#596366" stroke-width="2.5"/><rect x="345" y="520" width="275" height="180" rx="6" fill="#FFFFFF"/><text x="357" y="540" text-anchor="start" font-family="Montserrat, Arial, Helvetica, sans-serif" font-weight="700" font-size="12" fill="#586266">MEDIÇÃO</text><text x="357" y="554" text-anchor="start" font-family="Roboto, Arial, Helvetica, sans-serif" font-weight="400" font-size="7" fill="#7A8286">como se mede; o que ninguém olha</text><line x1="787.5" y1="520" x2="847.5" y2="430" stroke="#596366" stroke-width="2.5"/><rect x="650" y="520" width="275" height="180" rx="6" fill="#FFFFFF"/><text x="662" y="540" text-anchor="start" font-family="Montserrat, Arial, Helvetica, sans-serif" font-weight="700" font-size="12" fill="#586266">MEIO AMBIENTE</text><text x="662" y="554" text-anchor="start" font-family="Roboto, Arial, Helvetica, sans-serif" font-weight="400" font-size="7" fill="#7A8286">contexto: prazo, gate, sessão ocupada, regra externa</text><rect x="19" y="712" width="1152.25" height="114" rx="6" fill="#FFFFFF"/><text x="31" y="731" text-anchor="start" font-family="Montserrat, Arial, Helvetica, sans-serif" font-weight="700" font-size="11" fill="#586266">RAMO(S) ESCOLHIDO(S)</text><text x="31" y="745" text-anchor="start" font-family="Roboto, Arial, Helvetica, sans-serif" font-weight="400" font-size="7" fill="#7A8286">por relação causa-efeito e impacto → rode os 5 Porquês em cada ramo escolhido</text></svg>